<svg width="46" height="46" viewBox="0 0 46 46" fill="none" xmlns="http://www.w3.org/2000/svg">
<rect width="45" height="45" transform="translate(0.5 0.5)" fill="white"/>
<path d="M34.5026 16.3353H31.6992C31.5827 16.3353 31.4709 16.289 31.3885 16.2065C31.3061 16.1241 31.2598 16.0124 31.2598 15.8958V9.46484C31.2598 9.34829 31.3061 9.23652 31.3885 9.1541C31.4709 9.07169 31.5827 9.02539 31.6992 9.02539H34.5026C34.7852 9.02572 35.0561 9.13811 35.2559 9.3379C35.4557 9.5377 35.568 9.80859 35.5684 10.0912V15.2695C35.568 15.5521 35.4557 15.8229 35.2559 16.0227C35.0561 16.2225 34.7852 16.3349 34.5026 16.3353V16.3353ZM32.1387 15.4563H34.5026C34.5522 15.4563 34.5997 15.4366 34.6347 15.4016C34.6697 15.3665 34.6894 15.319 34.6895 15.2695V10.0912C34.6894 10.0416 34.6697 9.99411 34.6347 9.95908C34.5997 9.92404 34.5522 9.90434 34.5026 9.9043H32.1387V15.4563Z" fill="#3B4F7D" fill-opacity="0.75"/>
<path d="M34.5026 25.5416H31.6992C31.5827 25.5416 31.4709 25.4953 31.3885 25.4129C31.3061 25.3305 31.2598 25.2187 31.2598 25.1022V18.6712C31.2598 18.5547 31.3061 18.4429 31.3885 18.3605C31.4709 18.2781 31.5827 18.2318 31.6992 18.2318H34.5026C34.7852 18.2321 35.0561 18.3445 35.2559 18.5443C35.4557 18.7441 35.568 19.015 35.5684 19.2975V24.4766C35.5679 24.759 35.4554 25.0297 35.2556 25.2294C35.0558 25.429 34.785 25.5413 34.5026 25.5416V25.5416ZM32.1387 24.6627H34.5026C34.552 24.6627 34.5994 24.6431 34.6344 24.6082C34.6694 24.5733 34.6892 24.526 34.6895 24.4766V19.2975C34.6894 19.248 34.6697 19.2005 34.6347 19.1654C34.5997 19.1304 34.5522 19.1107 34.5026 19.1107H32.1387V24.6627Z" fill="#3B4F7D" fill-opacity="0.75"/>
<path d="M34.5026 34.748H31.6992C31.5827 34.748 31.4709 34.7017 31.3885 34.6193C31.3061 34.5369 31.2598 34.4251 31.2598 34.3085V27.8778C31.2598 27.7612 31.3061 27.6494 31.3885 27.567C31.4709 27.4846 31.5827 27.4383 31.6992 27.4383H34.5026C34.7852 27.4386 35.0561 27.551 35.2559 27.7508C35.4557 27.9506 35.5681 28.2215 35.5684 28.5041V33.6824C35.568 33.9649 35.4556 34.2358 35.2558 34.4356C35.056 34.6354 34.7851 34.7477 34.5026 34.748ZM32.1387 33.8691H34.5026C34.5521 33.869 34.5996 33.8494 34.6346 33.8144C34.6696 33.7794 34.6894 33.7319 34.6895 33.6824V28.5041C34.6894 28.4545 34.6697 28.407 34.6347 28.372C34.5997 28.337 34.5522 28.3173 34.5026 28.3172H32.1387V33.8691Z" fill="#3B4F7D" fill-opacity="0.75"/>
<path d="M34.25 36.2906C34.1335 36.2906 34.0217 36.3369 33.9393 36.4194C33.8568 36.5018 33.8105 36.6135 33.8105 36.7301V40.3145H11.2895V39.4355C11.2895 39.319 11.2432 39.2072 11.1607 39.1248C11.0783 39.0424 10.9666 38.9961 10.85 38.9961C10.7335 38.9961 10.6217 39.0424 10.5393 39.1248C10.4569 39.2072 10.4106 39.319 10.4106 39.4355V40.7539C10.4106 40.8705 10.4569 40.9822 10.5393 41.0646C10.6217 41.1471 10.7335 41.1934 10.85 41.1934H34.25C34.3666 41.1934 34.4783 41.1471 34.5607 41.0646C34.6432 40.9822 34.6895 40.8705 34.6895 40.7539V36.7301C34.6895 36.6135 34.6432 36.5018 34.5607 36.4194C34.4783 36.3369 34.3666 36.2906 34.25 36.2906V36.2906Z" fill="#3B4F7D" fill-opacity="0.75"/>
<path d="M32.1387 38.2051V7.79492C32.1387 7.67837 32.0924 7.56659 32.01 7.48418C31.9275 7.40177 31.8158 7.35547 31.6992 7.35547H8.29922C8.18267 7.35547 8.0709 7.40177 7.98848 7.48418C7.90607 7.56659 7.85977 7.67837 7.85977 7.79492V25.5879C7.85977 25.7044 7.90607 25.8162 7.98848 25.8986C8.0709 25.981 8.18267 26.0273 8.29922 26.0273C8.41577 26.0273 8.52755 25.981 8.60997 25.8986C8.69238 25.8162 8.73868 25.7044 8.73868 25.5879V8.23438H31.2598V37.7656H8.73868V34.0742C8.73868 33.9577 8.69238 33.8459 8.60997 33.7635C8.52755 33.6811 8.41577 33.6348 8.29922 33.6348C8.18267 33.6348 8.0709 33.6811 7.98848 33.7635C7.90607 33.8459 7.85977 33.9577 7.85977 34.0742V38.2051C7.85977 38.3216 7.90607 38.4334 7.98848 38.5158C8.0709 38.5982 8.18267 38.6445 8.29922 38.6445H31.6992C31.8158 38.6445 31.9275 38.5982 32.01 38.5158C32.0924 38.4334 32.1387 38.3216 32.1387 38.2051V38.2051Z" fill="#3B4F7D" fill-opacity="0.75"/>
<path d="M28.2871 35.6562H19.8496C19.6398 35.6562 19.4387 35.5729 19.2903 35.4246C19.142 35.2762 19.0586 35.075 19.0586 34.8652V30.4804C19.0586 30.2706 19.142 30.0694 19.2903 29.921C19.4387 29.7727 19.6398 29.6894 19.8496 29.6894H28.2871C28.4969 29.6894 28.6981 29.7727 28.8465 29.921C28.9948 30.0694 29.0782 30.2706 29.0782 30.4804V34.8652C29.0779 35.075 28.9945 35.276 28.8462 35.4243C28.6979 35.5726 28.4969 35.656 28.2871 35.6562V35.6562ZM19.9375 34.7773H28.1992V30.5683H19.9375V34.7773Z" fill="#3B4F7D" fill-opacity="0.75"/>
<path d="M17.0516 28.2153C15.4431 28.2153 13.8844 27.6576 12.641 26.6372C11.3976 25.6168 10.5465 24.1969 10.2327 22.6193C9.91892 21.0418 10.1618 19.4042 10.92 17.9857C11.6783 16.5671 12.9049 15.4554 14.3909 14.8398C15.8769 14.2243 17.5304 14.1431 19.0696 14.61C20.6088 15.0769 21.9385 16.063 22.8321 17.4004C23.7257 18.7378 24.128 20.3437 23.9703 21.9444C23.8126 23.5451 23.1048 25.0417 21.9675 26.179V26.179C21.3234 26.8266 20.5573 27.3401 19.7135 27.6896C18.8697 28.0391 17.9649 28.2178 17.0516 28.2153V28.2153ZM17.0516 15.1925C15.6471 15.1936 14.2865 15.6815 13.2015 16.5733C12.1165 17.4651 11.3743 18.7054 11.1013 20.0831C10.8283 21.4607 11.0415 22.8904 11.7044 24.1285C12.3673 25.3667 13.439 26.3366 14.7369 26.8732C16.0348 27.4098 17.4786 27.4797 18.8222 27.0711C20.1659 26.6625 21.3264 25.8007 22.1059 24.6325C22.8854 23.4642 23.2357 22.0618 23.0971 20.6642C22.9586 19.2667 22.3398 17.9604 21.3461 16.9679C20.7825 16.4037 20.113 15.9564 19.376 15.6517C18.639 15.347 17.849 15.1909 17.0516 15.1925V15.1925Z" fill="#3B4F7D" fill-opacity="0.75"/>
<path d="M17.0516 26.025C15.9499 26.0243 14.8825 25.6416 14.0313 24.9422C13.1801 24.2427 12.5978 23.2698 12.3835 22.1892C12.1692 21.1085 12.3362 19.987 12.8561 19.0157C13.376 18.0444 14.2166 17.2834 15.2347 16.8623C16.2528 16.4413 17.3853 16.3863 18.4394 16.7066C19.4935 17.027 20.4039 17.7029 21.0155 18.6193C21.6271 19.5356 21.9021 20.6356 21.7936 21.732C21.6851 22.8283 21.1998 23.8531 20.4204 24.6318C19.9783 25.0745 19.4531 25.4254 18.875 25.6645C18.2969 25.9036 17.6772 26.0261 17.0516 26.025V26.025ZM17.0516 17.3796C16.1531 17.3802 15.2827 17.6923 14.5886 18.2628C13.8945 18.8332 13.4196 19.6267 13.2449 20.508C13.0702 21.3893 13.2065 22.3039 13.6305 23.096C14.0545 23.8881 14.7401 24.5086 15.5704 24.8519C16.4006 25.1952 17.3242 25.2401 18.1838 24.9788C19.0434 24.7174 19.7858 24.1662 20.2846 23.4189C20.7833 22.6716 21.0075 21.7745 20.919 20.8804C20.8304 19.9863 20.4346 19.1506 19.799 18.5156C19.4384 18.1547 19.0101 17.8685 18.5386 17.6735C18.0671 17.4786 17.5618 17.3787 17.0516 17.3796V17.3796Z" fill="#3B4F7D" fill-opacity="0.75"/>
<path d="M7.66591 32.4066C7.31804 32.4069 6.97792 32.3039 6.68859 32.1108C6.39927 31.9176 6.17375 31.643 6.04059 31.3216C5.90743 31.0003 5.87262 30.6466 5.94056 30.3055C6.0085 29.9643 6.17614 29.651 6.42225 29.4051L10.9414 24.8865C11.024 24.8047 11.1356 24.7589 11.2518 24.7592C11.368 24.7594 11.4794 24.8057 11.5615 24.8879C11.6437 24.9701 11.69 25.0815 11.6902 25.1977C11.6904 25.3139 11.6446 25.4255 11.5628 25.508L7.04382 30.0267C6.87883 30.1916 6.78613 30.4154 6.78611 30.6487C6.78609 30.882 6.87876 31.1058 7.04373 31.2708C7.20869 31.4358 7.43244 31.5285 7.66576 31.5285C7.89907 31.5285 8.12283 31.4358 8.28782 31.2709L12.8066 26.7522C12.8472 26.7103 12.8957 26.6768 12.9493 26.6537C13.0029 26.6307 13.0606 26.6186 13.1189 26.6181C13.1773 26.6176 13.2351 26.6287 13.2891 26.6508C13.3431 26.6729 13.3922 26.7055 13.4335 26.7468C13.4747 26.788 13.5074 26.8371 13.5295 26.8911C13.5515 26.9451 13.5627 27.003 13.5622 27.0613C13.5617 27.1197 13.5495 27.1774 13.5265 27.231C13.5035 27.2846 13.47 27.3331 13.428 27.3736L8.90921 31.8922C8.74607 32.0557 8.55226 32.1852 8.33889 32.2735C8.12552 32.3618 7.89681 32.407 7.66591 32.4066V32.4066Z" fill="#3B4F7D" fill-opacity="0.75"/>
</svg>
