<svg width="125" height="125" viewBox="0 0 125 125" fill="none" xmlns="http://www.w3.org/2000/svg">
<path d="M33.9667 53.9167L38.0917 54.5L33.9667 53.9167ZM33.8833 54.5L29.7583 53.9167L33.8833 54.5ZM91.0333 53.9167L95.1583 53.3333L91.0333 53.9167ZM91.1167 54.5L86.9917 55.0833L91.1167 54.5ZM79.1667 104.167V108.333C80.2717 108.333 81.3315 107.894 82.1129 107.113C82.8943 106.332 83.3333 105.272 83.3333 104.167H79.1667ZM45.8333 104.167H41.6667C41.6667 105.272 42.1057 106.332 42.8871 107.113C43.6685 107.894 44.7283 108.333 45.8333 108.333V104.167ZM39.625 76.275L42.925 73.725L39.625 76.275ZM85.375 76.275L82.075 73.725L85.375 76.275ZM50 125H75V116.667H50V125ZM29.8333 53.3333L29.75 53.9167L38 55.0833L38.0833 54.5L29.8333 53.3333ZM62.5 25C54.5562 24.9987 46.8786 27.8636 40.8775 33.0686C34.8765 38.2736 30.955 45.4691 29.8333 53.3333L38.0833 54.5C38.9239 48.6238 41.856 43.248 46.3413 39.3597C50.8266 35.4715 56.564 33.3317 62.5 33.3333V25ZM95.1667 53.3333C94.045 45.4691 90.1235 38.2736 84.1225 33.0686C78.1214 27.8636 70.4438 24.9987 62.5 25V33.3333C68.4355 33.3334 74.172 35.4738 78.6569 39.3618C83.1419 43.2497 86.0745 48.6245 86.9167 54.5L95.1667 53.3333ZM95.25 53.9167L95.1667 53.3333L86.9167 54.5L87 55.0833L95.25 53.9167ZM88.6667 78.825C93.9167 72.0417 96.5667 63.2 95.25 53.9083L87 55.0917C87.4773 58.3686 87.2878 61.7081 86.4429 64.91C85.598 68.1119 84.1152 71.1102 82.0833 73.725L88.6667 78.825ZM75 90.8333V104.167H83.3333V90.8417H75V90.8333ZM79.1667 100H45.8333V108.333H79.1667V100ZM50 104.167V90.8417H41.6667V104.167H50ZM29.75 53.9167C29.1165 58.2978 29.373 62.7617 30.5042 67.0415C31.6353 71.3212 33.6179 75.329 36.3333 78.825L42.9167 73.725C40.8848 71.1102 39.402 68.1119 38.5571 64.91C37.7122 61.7081 37.5227 58.3686 38 55.0917L29.75 53.9083V53.9167ZM50 90.8333C50 83.975 46.35 78.1417 42.9167 73.7167L36.3333 78.8167C39.525 82.9417 41.6667 86.8833 41.6667 90.8333H50ZM82.0833 73.7167C78.6417 78.15 75 83.975 75 90.8333H83.3333C83.3333 86.8833 85.475 82.9417 88.6667 78.8167L82.0833 73.7167V73.7167ZM58.3333 0V16.6667H66.6667V0H58.3333ZM0 66.6667H16.6667V58.3333H0V66.6667ZM108.333 66.6667H125V58.3333H108.333V66.6667ZM27.95 30.3833L15.45 17.8833L9.55 23.7833L22.05 36.2833L27.95 30.3833ZM102.95 36.2833L115.45 23.7833L109.55 17.8833L97.05 30.3833L102.95 36.2833Z" fill="#3B4F7D" fill-opacity="0.75"/>
<path d="M70.9128 90.0698C70.9214 90.2538 70.8936 90.4377 70.8311 90.611C70.7685 90.7843 70.6723 90.9435 70.5481 91.0796C70.4239 91.2156 70.2741 91.3259 70.1072 91.4039C69.9403 91.482 69.7597 91.5264 69.5757 91.5345L57.7032 92.0751C57.5192 92.0837 57.3353 92.056 57.162 91.9934C56.9887 91.9308 56.8295 91.8347 56.6934 91.7104C56.5574 91.5862 56.4472 91.4364 56.3691 91.2695C56.291 91.1027 56.2466 90.922 56.2385 90.738L54.4365 51.1632C54.4285 50.974 54.459 50.7851 54.5262 50.6079L59.8317 36.4865C59.928 36.2298 60.0976 36.007 60.3194 35.8458C60.5411 35.6846 60.8053 35.592 61.0792 35.5796C61.3531 35.5671 61.6246 35.6353 61.8601 35.7757C62.0956 35.9161 62.2847 36.1225 62.404 36.3693L68.971 49.9502C69.0539 50.1205 69.1015 50.3058 69.1108 50.495L70.9128 90.0698V90.0698ZM67.8162 83.6813L58.7417 84.0945L58.9747 89.2115L68.0492 88.7983L67.8162 83.6813ZM58.6143 81.2966L67.6888 80.8834L66.5175 55.1598L65.9113 54.6064L64.967 55.6408C64.7165 55.9152 64.3673 56.0788 63.9963 56.0957C63.6252 56.1126 63.2626 55.9814 62.9882 55.7309L61.9538 54.7866L61.0095 55.821C60.759 56.0954 60.4099 56.259 60.0388 56.2759C59.6677 56.2928 59.3051 56.1616 59.0308 55.9111L57.9963 54.9668L57.443 55.573L58.6143 81.2966V81.2966ZM66.343 51.3289L66.3239 50.9094L61.3047 40.5318L57.2494 51.3227L57.2685 51.7421C57.5224 51.6121 57.8099 51.5627 58.0926 51.6005C58.3753 51.6383 58.6398 51.7615 58.8506 51.9537L59.885 52.898L60.8293 51.8636C61.0797 51.5892 61.4289 51.4256 61.8 51.4087C62.1711 51.3918 62.5337 51.523 62.808 51.7735L63.8424 52.7178L64.7868 51.6833C64.9792 51.4728 65.2314 51.3261 65.5095 51.2628C65.7876 51.1994 66.0784 51.2225 66.343 51.3289V51.3289Z" fill="#3B4F81" fill-opacity="0.75"/>
<line x1="60.6744" y1="55.3498" x2="61.6462" y2="81.1007" stroke="#3B4F7D" stroke-opacity="0.75" stroke-width="3"/>
<line x1="63.9135" y1="55.3498" x2="64.8853" y2="81.1007" stroke="#3B4F7D" stroke-opacity="0.75" stroke-width="3"/>
</svg>
