<svg width="125" height="125" viewBox="0 0 125 125" fill="none" xmlns="http://www.w3.org/2000/svg">
<g clip-path="url(#clip0_5_38)">
<path d="M122.144 108.325L92.9199 79.1016C99.5654 69.2358 102.844 56.9092 101.089 43.7744C98.0957 21.4331 79.7851 3.25196 57.4219 0.420662C24.1724 -3.78661 -3.78663 24.1724 0.420891 57.4219C3.25292 79.7949 21.4365 98.1201 43.7803 101.099C56.915 102.854 69.2441 99.5762 79.1074 92.9297L108.331 122.153C112.145 125.967 118.329 125.967 122.142 122.153C125.952 118.335 125.952 112.134 122.144 108.325V108.325ZM19.3115 50.7812C19.3115 33.5498 33.3301 19.5313 50.5615 19.5313C67.793 19.5313 81.8115 33.5498 81.8115 50.7812C81.8115 68.0127 67.793 82.0312 50.5615 82.0312C33.3301 82.0312 19.3115 68.0176 19.3115 50.7812V50.7812Z" fill="#3B4F7D" fill-opacity="0.75"/>
<path d="M42.3212 51.1474C42.3212 53.095 43.0949 54.9628 44.472 56.3399C45.8491 57.7171 47.7169 58.4907 49.6645 58.4907C51.6121 58.4907 53.4799 57.7171 54.857 56.3399C56.2341 54.9628 57.0078 53.095 57.0078 51.1474C57.0078 49.1999 56.2341 47.3321 54.857 45.955C53.4799 44.5778 51.6121 43.8042 49.6645 43.8042C47.7169 43.8042 45.8491 44.5778 44.472 45.955C43.0949 47.3321 42.3212 49.1999 42.3212 51.1474V51.1474ZM78.1329 49.4559C71.9173 36.3625 62.5218 29.7732 49.9268 29.7732C37.3251 29.7732 27.9362 36.3625 21.7206 49.4624C21.4713 49.9903 21.342 50.5669 21.342 51.1507C21.342 51.7345 21.4713 52.3111 21.7206 52.839C27.9362 65.9324 37.3317 72.5217 49.9268 72.5217C62.5284 72.5217 71.9173 65.9324 78.1329 52.8325C78.6377 51.7703 78.6377 50.5377 78.1329 49.4559V49.4559ZM49.6645 62.6869C43.2916 62.6869 38.125 57.5204 38.125 51.1474C38.125 44.7745 43.2916 39.608 49.6645 39.608C56.0374 39.608 61.204 44.7745 61.204 51.1474C61.204 57.5204 56.0374 62.6869 49.6645 62.6869Z" fill="#3B4F7D" fill-opacity="0.75"/>
</g>
<defs>
<clipPath id="clip0_5_38">
<rect width="125" height="125" fill="white"/>
</clipPath>
</defs>
</svg>
