<svg width="125" height="125" viewBox="0 0 125 125" fill="none" xmlns="http://www.w3.org/2000/svg">
<path d="M89.8438 106.172L79.7266 96.0547L74.2188 101.562L89.8438 117.187L117.188 89.8437L111.68 84.3359L89.8438 106.172Z" fill="#3B4F7D" fill-opacity="0.75"/>
<path d="M42.9688 35.1562C45.1261 35.1562 46.875 33.4074 46.875 31.25C46.875 29.0926 45.1261 27.3438 42.9688 27.3438C40.8114 27.3438 39.0625 29.0926 39.0625 31.25C39.0625 33.4074 40.8114 35.1562 42.9688 35.1562Z" fill="#3B4F7D" fill-opacity="0.75"/>
<path d="M42.9688 66.4062C45.1261 66.4062 46.875 64.6574 46.875 62.5C46.875 60.3426 45.1261 58.5938 42.9688 58.5938C40.8114 58.5938 39.0625 60.3426 39.0625 62.5C39.0625 64.6574 40.8114 66.4062 42.9688 66.4062Z" fill="#3B4F7D" fill-opacity="0.75"/>
<path d="M42.9688 97.6562C45.1261 97.6562 46.875 95.9074 46.875 93.75C46.875 91.5926 45.1261 89.8438 42.9688 89.8438C40.8114 89.8438 39.0625 91.5926 39.0625 93.75C39.0625 95.9074 40.8114 97.6562 42.9688 97.6562Z" fill="#3B4F7D" fill-opacity="0.75"/>
<path d="M93.75 11.7188H31.25C29.178 11.7188 27.1909 12.5418 25.7257 14.007C24.2606 15.4721 23.4375 17.4592 23.4375 19.5312V105.469C23.4375 107.541 24.2606 109.528 25.7257 110.993C27.1909 112.458 29.178 113.281 31.25 113.281H62.5V105.469H31.25V82.0312H101.562V19.5312C101.562 17.4592 100.739 15.4721 99.2743 14.007C97.8091 12.5418 95.822 11.7188 93.75 11.7188ZM93.75 74.2188H31.25V50.7812H93.75V74.2188ZM93.75 42.9688H31.25V19.5312H93.75V42.9688Z" fill="#3B4F7D" fill-opacity="0.75"/>
</svg>
