<svg width="125" height="125" viewBox="0 0 125 125" fill="none" xmlns="http://www.w3.org/2000/svg">
<path d="M40 56.25C37.9297 52.8076 34.0039 52.0996 31.25 54.6875C28.4961 57.2754 27.9297 62.1826 30 65.625L37.4414 78.0273C38.3789 79.5898 38.2422 81.7627 37.1484 83.1299L34.6484 86.2549C33.3398 87.8906 31.2109 87.7686 30.0391 85.9863L12.5 59.668V23.4375C12.5 19.1162 9.70703 15.625 6.25 15.625C2.79297 15.625 0 19.1162 0 23.4375V76.7578C0 79.4189 0.722656 82.0068 2.05078 84.082L22.3828 116.87C23.3594 118.457 24.0234 120.264 24.4141 122.168C24.7656 123.853 25.9961 125 27.4023 125H53.125C54.8438 125 56.25 123.242 56.25 121.094V93.75C56.25 86.9873 54.4922 80.4199 51.25 75L40 56.25V56.25ZM118.75 15.625C115.293 15.625 112.5 19.1162 112.5 23.4375V59.668L94.9609 85.9863C93.7891 87.7441 91.6406 87.8662 90.3516 86.2549L87.8516 83.1299C86.7578 81.7627 86.6211 79.5898 87.5586 78.0273L95 65.625C97.0703 62.1826 96.5039 57.2754 93.75 54.6875C90.9961 52.0996 87.0703 52.8076 85 56.25L73.75 75C70.5078 80.4199 68.75 86.9873 68.75 93.75V121.094C68.75 123.242 70.1562 125 71.875 125H97.5977C98.9844 125 100.234 123.853 100.586 122.168C100.977 120.264 101.641 118.457 102.617 116.87L122.949 84.082C124.277 82.0068 125 79.4189 125 76.7578V23.4375C125 19.1162 122.207 15.625 118.75 15.625Z" fill="#3B4F7D" fill-opacity="0.75"/>
<path d="M81.7399 14.5349C76.6738 9.14599 69.1392 10.1153 64.4891 16.1042L62.6679 18.4467L60.8466 16.1042C56.2057 10.1153 48.662 9.14599 43.5958 14.5349C37.7901 20.72 37.485 31.8208 42.6806 38.5252L60.5693 61.5808C61.7249 63.0694 63.6016 63.0694 64.7572 61.5808L82.6459 38.5252C87.8508 31.8208 87.5457 20.72 81.7399 14.5349V14.5349Z" fill="#3B4F7D" fill-opacity="0.75"/>
</svg>
