<svg width="125" height="125" viewBox="0 0 125 125" fill="none" xmlns="http://www.w3.org/2000/svg">
<path d="M67.7083 15.625C87.9167 15.625 104.167 31.9792 104.167 52.0833C104.167 66.6667 95.6771 79.1146 83.3333 84.9479V109.375H46.875V93.75H41.6667C35.8854 93.75 31.25 89.1146 31.25 83.3333V67.7083H23.4375C21.25 67.7083 20 65.1042 21.25 63.4896L31.25 50.3125C31.7089 40.9547 35.7512 32.1323 42.5389 25.6742C49.3267 19.2162 58.3393 15.6178 67.7083 15.625V15.625ZM67.7083 5.20834C43.8021 5.20834 24.0104 23.0208 21.1458 46.3542L13.0208 57.2917H12.8646L12.7604 57.4479C9.89584 61.4063 9.53126 66.6146 11.7708 70.9375C13.6458 74.5313 16.9792 77.0313 20.8333 77.8125V83.3333C20.8333 92.9688 27.5 101.146 36.4583 103.49V119.792H93.75V91.1458C106.771 82.4479 114.583 68.0208 114.583 52.0833C114.583 26.1979 93.5417 5.20834 67.7083 5.20834ZM88.5417 45.9896C88.5417 54.0104 81.4583 60.4167 70.7292 70.1563L67.7083 72.9167L64.6875 70.1563C53.9583 60.4167 46.875 54.0104 46.875 45.9896C46.875 39.7396 51.875 34.5833 58.125 34.5313H58.3333C61.9271 34.5313 65.3646 36.1458 67.7083 38.8542C70.0521 36.1458 73.4896 34.5313 77.0833 34.5313C83.3333 34.4792 88.5417 39.5313 88.5417 45.7813V45.9896V45.9896Z" fill="#3B4F7D" fill-opacity="0.75"/>
</svg>
