<svg width="125" height="125" viewBox="0 0 125 125" fill="none" xmlns="http://www.w3.org/2000/svg">
<path d="M15.625 11.7188C15.625 10.6827 16.0366 9.68918 16.7691 8.95661C17.5017 8.22405 18.4952 7.8125 19.5312 7.8125H105.469C106.505 7.8125 107.498 8.22405 108.231 8.95661C108.963 9.68918 109.375 10.6827 109.375 11.7188C109.375 12.7548 108.963 13.7483 108.231 14.4809C107.498 15.2135 106.505 15.625 105.469 15.625H97.6562V23.4375C97.6579 30.0706 95.7829 36.5688 92.2481 42.1814C88.7132 47.7941 83.6626 52.2922 77.6797 55.1562C75.4141 56.2422 74.2188 58.1016 74.2188 59.7656V65.2344C74.2188 66.8984 75.4219 68.7578 77.6797 69.8437C83.6626 72.7078 88.7132 77.2059 92.2481 82.8186C95.7829 88.4312 97.6579 94.9294 97.6562 101.562V109.375H105.469C106.505 109.375 107.498 109.787 108.231 110.519C108.963 111.252 109.375 112.245 109.375 113.281C109.375 114.317 108.963 115.311 108.231 116.043C107.498 116.776 106.505 117.188 105.469 117.188H19.5312C18.4952 117.188 17.5017 116.776 16.7691 116.043C16.0366 115.311 15.625 114.317 15.625 113.281C15.625 112.245 16.0366 111.252 16.7691 110.519C17.5017 109.787 18.4952 109.375 19.5312 109.375H27.3438V101.562C27.3421 94.9294 29.2171 88.4312 32.752 82.8186C36.2868 77.2059 41.3374 72.7078 47.3203 69.8437C49.5859 68.7578 50.7812 66.8984 50.7812 65.2344V59.7656C50.7812 58.1016 49.5781 56.2422 47.3203 55.1562C41.3374 52.2922 36.2868 47.7941 32.752 42.1814C29.2171 36.5688 27.3421 30.0706 27.3438 23.4375V15.625H19.5312C18.4952 15.625 17.5017 15.2135 16.7691 14.4809C16.0366 13.7483 15.625 12.7548 15.625 11.7188ZM35.1562 15.625V23.4375C35.1548 28.597 36.6132 33.6517 39.3629 38.0174C42.1126 42.3832 46.0414 45.8819 50.6953 48.1094C54.8594 50.1094 58.5938 54.2891 58.5938 59.7578V65.2422C58.5938 65.2422 60 66.4062 62.5 66.4062C65 66.4062 66.4062 65.2344 66.4062 65.2344V59.7656C66.4062 54.2891 70.1406 50.1094 74.3047 48.1094C78.9586 45.8819 82.8874 42.3832 85.6371 38.0174C88.3868 33.6517 89.8452 28.597 89.8438 23.4375V15.625H35.1562Z" fill="#3B4F7D" fill-opacity="0.75"/>
</svg>
