<svg width="125" height="125" viewBox="0 0 125 125" fill="none" xmlns="http://www.w3.org/2000/svg">
<path d="M106.285 85.1389C100.705 79.0938 93.9347 74.2695 86.3991 70.9699C78.8635 67.6703 70.7263 65.9668 62.5 65.9668C54.2737 65.9668 46.1365 67.6703 38.6009 70.9699C31.0653 74.2695 24.2946 79.0938 18.7153 85.1389C17.8539 86.0914 17.372 87.3269 17.3611 88.6111V109.444C17.3794 110.814 17.9362 112.121 18.9109 113.083C19.8857 114.044 21.2001 114.583 22.5694 114.583H102.431C103.812 114.583 105.137 114.035 106.113 113.058C107.09 112.081 107.639 110.756 107.639 109.375V88.5417C107.611 87.2815 107.13 86.0735 106.285 85.1389V85.1389Z" fill="#3B4F7D" fill-opacity="0.75"/>
<path d="M62.5 59.0278C68.139 59.0244 73.6013 57.0604 77.9514 53.4722H77.1875C74.937 53.4951 72.7204 52.9231 70.7619 51.8142C68.8034 50.7052 67.1725 49.0987 66.0343 47.1571C64.8962 45.2154 64.291 43.0076 64.2801 40.757C64.2692 38.5064 64.8529 36.2928 65.9722 34.3403L76.9445 15.3472C73.8627 13.0133 70.2687 11.4482 66.4609 10.7817C62.653 10.1152 58.7411 10.3666 55.0498 11.5151C51.3586 12.6635 47.9945 14.6758 45.2369 17.385C42.4792 20.0941 40.4076 23.422 39.1939 27.0923C37.9801 30.7626 37.6594 34.6694 38.2583 38.4885C38.8571 42.3076 40.3583 45.9288 42.6371 49.0514C44.916 52.1741 47.9068 54.7081 51.3614 56.4431C54.8159 58.1782 58.6344 59.0643 62.5 59.0278Z" fill="#3B4F7D" fill-opacity="0.75"/>
<path d="M94.5552 26.1266L94.6216 30.4334C96.0404 29.7118 97.5674 29.2977 99.112 29.2157C100.841 29.1037 102.318 29.1832 103.624 29.3582L103.561 25.2025C102.069 25.0225 100.559 24.9811 99.0493 25.0788C97.5197 25.1759 96.0032 25.5295 94.5552 26.1266V26.1266ZM94.6888 35.0938L94.7553 39.4006C96.174 38.679 97.701 38.2649 99.2456 38.1829C100.975 38.071 102.452 38.1504 103.757 38.3254L103.694 34.1697C102.202 33.9897 100.693 33.9483 99.183 34.046C97.6532 34.1411 96.1364 34.4948 94.6888 35.0938V35.0938ZM94.826 44.0589L94.8924 48.3657C96.3112 47.6441 97.8382 47.23 99.3828 47.1479C101.112 47.036 102.589 47.1155 103.895 47.2905L103.831 43.1348C102.339 42.9547 100.83 42.9134 99.3201 43.0111C97.7903 43.1062 96.2736 43.4598 94.826 44.0589ZM74.2307 45.033L74.2938 49.1887C75.7746 48.8009 77.2798 48.5603 78.79 48.4699C80.3338 48.3549 81.87 48.5731 83.3074 49.1114L83.241 44.8046C81.7789 44.3939 80.2559 44.2348 78.7273 44.3331C77.2181 44.4277 75.7137 44.6619 74.2307 45.033V45.033ZM73.9599 27.1007L74.023 31.2564C75.504 30.87 77.0091 30.6294 78.5192 30.5376C80.063 30.4227 81.5992 30.6408 83.0367 31.1791L82.9737 26.8702C81.5103 26.4605 79.9861 26.3021 78.4565 26.4008C76.9473 26.4955 75.4429 26.7296 73.9599 27.1007V27.1007ZM74.0936 36.0679L74.1567 40.2236C75.6375 39.8358 77.1427 39.5952 78.6528 39.5048C80.1967 39.3899 81.7329 39.608 83.1703 40.1463L83.1074 35.8374C81.6453 35.4267 80.1222 35.2676 78.5936 35.3659C77.0832 35.4612 75.5776 35.6961 74.0936 36.0679V36.0679ZM98.9033 15.5139C95.0589 15.7405 91.3854 17.5768 88.6739 20.6272C85.8762 17.9315 82.155 16.5712 78.3123 16.8395C70.9183 17.315 65.5864 21.4601 65.5864 21.4601L66.1972 61.0005C66.2163 62.2163 67.5282 62.8684 68.4198 62.0757C70.3378 60.3689 73.667 58.3727 78.9333 58.0341C83.9678 57.7114 86.8005 60.4258 88.1996 62.46C88.7541 63.2673 89.9145 63.1322 90.4494 62.2575C91.7977 60.0519 94.5357 57.0317 99.5261 56.7121C104.799 56.3722 108.182 57.9412 110.149 59.4009C111.066 60.0789 112.346 59.2647 112.329 58.0496L111.743 18.4943C111.743 18.4943 106.296 15.0412 98.9033 15.5139ZM87.2709 55.5326C84.7883 53.8648 81.8529 53.0835 78.8652 53.2952C75.1995 53.5293 72.4209 54.4425 70.5244 55.3298L70.0466 23.9746C71.2936 23.2072 74.0623 21.8502 78.3847 21.5733C82.455 21.3128 85.1741 23.2883 86.8127 25.1369L87.2709 55.5326ZM107.842 52.9346C105.92 52.2915 103.118 51.7377 99.4519 51.9747C96.464 52.1457 93.5578 53.3016 91.1305 55.2845L90.6723 24.8888C92.249 22.8321 94.9019 20.5104 98.9748 20.2506C103.295 19.973 106.1 20.972 107.367 21.5772L107.842 52.9346V52.9346Z" fill="#3B4F7D" fill-opacity="0.75"/>
</svg>
