<svg width="125" height="125" viewBox="0 0 125 125" fill="none" xmlns="http://www.w3.org/2000/svg">
<path d="M67.7083 15.625C88.0208 15.625 104.167 31.7708 104.167 52.0833C104.167 66.6667 95.8333 79.1667 83.3333 84.8958V109.375H46.875V93.75H41.6667C35.9375 93.75 31.25 89.0625 31.25 83.3333V67.7083H23.4375C21.3542 67.7083 19.7917 65.1042 21.3542 63.5417L31.25 50.5208C32.2917 30.7292 47.9167 15.625 67.7083 15.625ZM67.7083 5.20833C43.75 5.20833 23.9583 22.9167 21.3542 46.3542L13.0208 57.2917C9.89584 61.4583 9.89584 66.6667 11.9792 70.8333C14.0625 74.4792 17.1875 77.0833 20.8333 77.6042V83.3333C20.8333 93.2292 27.6042 101.042 36.4583 103.646V119.792H93.75V91.1458C106.771 82.2917 114.583 68.2292 114.583 52.0833C114.583 26.0417 93.75 5.20833 67.7083 5.20833ZM72.9167 72.9167H62.5V67.7083H72.9167V72.9167ZM81.25 49.4792C79.6875 51.5625 78.125 53.6458 75.5208 55.2083V62.5H59.8958V55.2083C52.6042 51.0417 50 41.1458 54.1667 33.8542C58.3333 26.5625 68.2292 23.9583 75.5208 28.125C82.8125 32.2917 85.4167 42.1875 81.25 49.4792Z" fill="#3B4F7D" fill-opacity="0.75"/>
</svg>
