<svg width="105" height="90" viewBox="0 0 105 90" fill="none" xmlns="http://www.w3.org/2000/svg">
<path d="M28.956 32.252V31.6C32.976 31.192 34.944 29.14 34.944 25.2V18.012C34.944 13.636 36.504 11.86 40.36 11.86H41.452V8H39.948C33.5 8 30.46 11.036 30.46 17.408V23.504C30.46 27.88 28.956 29.328 24.5 29.328V34.524C28.956 34.524 30.46 35.972 30.46 40.348V46.444C30.46 52.816 33.496 55.852 39.948 55.852H41.452V51.996H40.36C36.504 51.996 34.944 50.22 34.944 45.844V38.652C34.944 34.716 32.976 32.664 28.956 32.252V32.252ZM76.044 31.6V32.252C72.024 32.664 70.056 34.716 70.056 38.652V45.844C70.056 50.22 68.496 51.996 64.64 51.996H63.548V55.852H65.052C71.504 55.852 74.54 52.816 74.54 46.444V40.348C74.54 35.972 76.044 34.524 80.5 34.524V29.328C76.044 29.328 74.54 27.88 74.54 23.504V17.408C74.54 11.036 71.5 8 65.052 8H63.548V11.856H64.64C68.496 11.856 70.056 13.632 70.056 18.008V25.2C70.056 29.136 72.024 31.188 76.044 31.6Z" fill="#233B55"/>
<ellipse cx="40" cy="32" rx="4.5" ry="4" fill="#233B55"/>
<ellipse cx="53" cy="32" rx="4.5" ry="4" fill="#233B55"/>
<ellipse cx="66" cy="32" rx="4.5" ry="4" fill="#233B55"/>
<path d="M27.4571 86L25.0411 82.56C24.7424 82.5813 24.5077 82.592 24.3371 82.592H21.5691V86H19.9691V74.8H24.3371C25.7877 74.8 26.9291 75.1467 27.7611 75.84C28.5931 76.5333 29.0091 77.488 29.0091 78.704C29.0091 79.568 28.7957 80.304 28.3691 80.912C27.9424 81.52 27.3344 81.9627 26.5451 82.24L29.2011 86H27.4571ZM24.2891 81.232C25.3024 81.232 26.0757 81.0133 26.6091 80.576C27.1424 80.1387 27.4091 79.5147 27.4091 78.704C27.4091 77.8933 27.1424 77.2747 26.6091 76.848C26.0757 76.4107 25.3024 76.192 24.2891 76.192H21.5691V81.232H24.2891ZM39.0341 81.808C39.0341 81.9253 39.0234 82.08 39.0021 82.272H32.1221C32.2181 83.0187 32.5434 83.6213 33.0981 84.08C33.6634 84.528 34.3621 84.752 35.1941 84.752C36.2074 84.752 37.0234 84.4107 37.6421 83.728L38.4901 84.72C38.1061 85.168 37.6261 85.5093 37.0501 85.744C36.4847 85.9787 35.8501 86.096 35.1461 86.096C34.2501 86.096 33.4554 85.9147 32.7621 85.552C32.0687 85.1787 31.5301 84.6613 31.1461 84C30.7727 83.3387 30.5861 82.592 30.5861 81.76C30.5861 80.9387 30.7674 80.1973 31.1301 79.536C31.5034 78.8747 32.0101 78.3627 32.6501 78C33.3007 77.6267 34.0314 77.44 34.8421 77.44C35.6527 77.44 36.3727 77.6267 37.0021 78C37.6421 78.3627 38.1381 78.8747 38.4901 79.536C38.8527 80.1973 39.0341 80.9547 39.0341 81.808ZM34.8421 78.736C34.1061 78.736 33.4874 78.96 32.9861 79.408C32.4954 79.856 32.2074 80.4427 32.1221 81.168H37.5621C37.4767 80.4533 37.1834 79.872 36.6821 79.424C36.1914 78.9653 35.5781 78.736 34.8421 78.736ZM43.5989 86.096C42.9056 86.096 42.2389 86.0053 41.5989 85.824C40.9589 85.632 40.4576 85.392 40.0949 85.104L40.7349 83.888C41.1083 84.1547 41.5616 84.368 42.0949 84.528C42.6283 84.688 43.1669 84.768 43.7109 84.768C45.0549 84.768 45.7269 84.384 45.7269 83.616C45.7269 83.36 45.6363 83.1573 45.4549 83.008C45.2736 82.8587 45.0443 82.752 44.7669 82.688C44.5003 82.6133 44.1163 82.5333 43.6149 82.448C42.9323 82.3413 42.3723 82.2187 41.9349 82.08C41.5083 81.9413 41.1403 81.7067 40.8309 81.376C40.5216 81.0453 40.3669 80.5813 40.3669 79.984C40.3669 79.216 40.6869 78.6027 41.3269 78.144C41.9669 77.6747 42.8256 77.44 43.9029 77.44C44.4683 77.44 45.0336 77.5093 45.5989 77.648C46.1643 77.7867 46.6283 77.9733 46.9909 78.208L46.3349 79.424C45.6416 78.976 44.8256 78.752 43.8869 78.752C43.2363 78.752 42.7403 78.8587 42.3989 79.072C42.0576 79.2853 41.8869 79.568 41.8869 79.92C41.8869 80.1973 41.9829 80.416 42.1749 80.576C42.3669 80.736 42.6016 80.8533 42.8789 80.928C43.1669 81.0027 43.5669 81.088 44.0789 81.184C44.7616 81.3013 45.3109 81.4293 45.7269 81.568C46.1536 81.696 46.5163 81.92 46.8149 82.24C47.1136 82.56 47.2629 83.008 47.2629 83.584C47.2629 84.352 46.9323 84.9653 46.2709 85.424C45.6203 85.872 44.7296 86.096 43.5989 86.096ZM53.9506 85.504C53.7266 85.696 53.4492 85.8453 53.1186 85.952C52.7879 86.048 52.4466 86.096 52.0946 86.096C51.2412 86.096 50.5799 85.8667 50.1106 85.408C49.6412 84.9493 49.4066 84.2933 49.4066 83.44V78.784H47.9666V77.52H49.4066V75.664H50.9426V77.52H53.3746V78.784H50.9426V83.376C50.9426 83.8347 51.0546 84.1867 51.2786 84.432C51.5132 84.6773 51.8439 84.8 52.2706 84.8C52.7399 84.8 53.1399 84.6667 53.4706 84.4L53.9506 85.504ZM67.4644 83.2H61.5124L60.2804 86H58.6324L63.7044 74.8H65.2884L70.3764 86H68.6964L67.4644 83.2ZM66.9044 81.92L64.4884 76.432L62.0724 81.92H66.9044ZM76.4152 74.8C77.8659 74.8 79.0072 75.1467 79.8392 75.84C80.6712 76.5333 81.0872 77.488 81.0872 78.704C81.0872 79.92 80.6712 80.8747 79.8392 81.568C79.0072 82.2613 77.8659 82.608 76.4152 82.608H73.6472V86H72.0472V74.8H76.4152ZM76.3672 81.216C77.3805 81.216 78.1539 81.0027 78.6872 80.576C79.2205 80.1387 79.4872 79.5147 79.4872 78.704C79.4872 77.8933 79.2205 77.2747 78.6872 76.848C78.1539 76.4107 77.3805 76.192 76.3672 76.192H73.6472V81.216H76.3672ZM83.4378 74.8H85.0378V86H83.4378V74.8Z" fill="#233B55"/>
</svg>
