<svg width="125" height="125" viewBox="0 0 125 125" fill="none" xmlns="http://www.w3.org/2000/svg">
<path d="M62.5 57.2917C69.4067 57.2917 76.0305 60.0353 80.9142 64.9191C85.798 69.8029 88.5417 76.4267 88.5417 83.3333V114.583H36.4583V83.3333C36.4583 76.4267 39.202 69.8029 44.0858 64.9191C48.9695 60.0353 55.5933 57.2917 62.5 57.2917ZM27.5417 72.9479C26.7128 75.7437 26.2232 78.629 26.0833 81.5417L26.0417 83.3333V114.583H10.4167V91.1458C10.4156 86.654 12.0731 82.32 15.071 78.9751C18.069 75.6301 22.1964 73.5098 26.6615 73.0208L27.5469 72.9479H27.5417ZM97.4583 72.9479C102.093 73.2304 106.446 75.2706 109.628 78.6523C112.81 82.0339 114.583 86.5023 114.583 91.1458V114.583H98.9583V83.3333C98.9583 79.724 98.4375 76.2396 97.4583 72.9479ZM28.6458 41.6667C32.0992 41.6667 35.4111 43.0385 37.853 45.4804C40.2948 47.9223 41.6667 51.2342 41.6667 54.6875C41.6667 58.1408 40.2948 61.4527 37.853 63.8946C35.4111 66.3365 32.0992 67.7083 28.6458 67.7083C25.1925 67.7083 21.8806 66.3365 19.4387 63.8946C16.9968 61.4527 15.625 58.1408 15.625 54.6875C15.625 51.2342 16.9968 47.9223 19.4387 45.4804C21.8806 43.0385 25.1925 41.6667 28.6458 41.6667V41.6667ZM96.3542 41.6667C99.8075 41.6667 103.119 43.0385 105.561 45.4804C108.003 47.9223 109.375 51.2342 109.375 54.6875C109.375 58.1408 108.003 61.4527 105.561 63.8946C103.119 66.3365 99.8075 67.7083 96.3542 67.7083C92.9008 67.7083 89.5889 66.3365 87.1471 63.8946C84.7052 61.4527 83.3333 58.1408 83.3333 54.6875C83.3333 51.2342 84.7052 47.9223 87.1471 45.4804C89.5889 43.0385 92.9008 41.6667 96.3542 41.6667V41.6667ZM62.5 10.4167C68.0254 10.4167 73.3244 12.6116 77.2314 16.5186C81.1384 20.4256 83.3333 25.7247 83.3333 31.25C83.3333 36.7753 81.1384 42.0744 77.2314 45.9814C73.3244 49.8884 68.0254 52.0833 62.5 52.0833C56.9747 52.0833 51.6756 49.8884 47.7686 45.9814C43.8616 42.0744 41.6667 36.7753 41.6667 31.25C41.6667 25.7247 43.8616 20.4256 47.7686 16.5186C51.6756 12.6116 56.9747 10.4167 62.5 10.4167V10.4167Z" fill="#3B4F7D" fill-opacity="0.75"/>
</svg>
