<svg width="125" height="125" viewBox="0 0 125 125" fill="none" xmlns="http://www.w3.org/2000/svg">
<g clip-path="url(#clip0_7_14)">
<path d="M52.0833 41.6667V72.9167L76.5625 88.0208L80.7292 81.7708L59.8958 69.2708V41.6667H52.0833Z" fill="#3B4F7D" fill-opacity="0.75"/>
<path d="M93.3333 62.5C94.1184 67.6768 93.7722 72.9622 92.3186 77.9923C90.865 83.0225 88.3385 87.6778 84.9131 91.6379C81.4877 95.5979 77.2447 98.7685 72.4764 100.931C67.708 103.094 62.5275 104.198 57.2917 104.167C36.9792 104.167 20.8333 88.0208 20.8333 67.7083C20.8333 47.3958 36.9792 31.25 57.2917 31.25C60.9375 31.25 64.4271 31.7708 67.7083 32.7604V22.0313C64.375 21.25 60.8854 20.8333 57.2917 20.8333C31.25 20.8333 10.4167 41.6667 10.4167 67.7083C10.4167 93.75 31.25 114.583 57.2917 114.583C63.8942 114.611 70.4274 113.237 76.46 110.554C82.4925 107.87 87.8872 103.937 92.2877 99.0147C96.6883 94.0924 99.9946 88.2926 101.988 81.9983C103.982 75.7039 104.618 69.0582 103.854 62.5H93.3333V62.5Z" fill="#3B4F7D" fill-opacity="0.75"/>
<path d="M96.0115 29.831C93.8946 29.831 91.9122 30.6089 90.4112 32.0305C88.9173 33.4521 88.089 35.3298 88.089 37.3348C88.089 39.3399 88.9173 41.2175 90.4112 42.6392C91.9122 44.0541 93.8946 44.8387 96.0115 44.8387C98.1284 44.8387 100.111 44.0541 101.612 42.6392C103.106 41.2175 103.934 39.3399 103.934 37.3348C103.934 35.3298 103.106 33.4521 101.612 32.0305C100.879 31.3308 100.006 30.776 99.0447 30.3984C98.0833 30.0208 97.0523 29.828 96.0115 29.831V29.831ZM125.202 45.6233L120.572 41.8747C120.792 40.6006 120.905 39.2997 120.905 38.0054C120.905 36.7112 120.792 35.4036 120.572 34.1361L125.202 30.3876C125.552 30.1039 125.803 29.7262 125.92 29.3046C126.038 28.8829 126.017 28.4373 125.861 28.0271L125.797 27.8527C124.523 24.4776 122.613 21.3491 120.161 18.6188L120.034 18.4779C119.736 18.1463 119.339 17.908 118.896 17.7942C118.452 17.6805 117.983 17.6968 117.549 17.8409L111.8 19.7789C109.676 18.1292 107.311 16.8283 104.748 15.923L103.637 10.2297C103.553 9.80081 103.333 9.40624 103.007 9.09841C102.681 8.79058 102.263 8.58406 101.81 8.50629L101.619 8.47276C97.9373 7.84241 94.0574 7.84241 90.3758 8.47276L90.1847 8.50629C89.7315 8.58406 89.3141 8.79058 88.9878 9.09841C88.6616 9.40624 88.4419 9.80081 88.358 10.2297L87.2394 15.9498C84.7007 16.8623 82.3357 18.1601 80.2373 19.7923L74.4458 17.8409C74.0123 17.6956 73.5423 17.6788 73.0985 17.7926C72.6546 17.9064 72.2578 18.1454 71.9607 18.4779L71.8333 18.6188C69.3857 21.352 67.4768 24.4797 66.1976 27.8527L66.1339 28.0271C65.8153 28.8653 66.0773 29.8042 66.7923 30.3876L71.4793 34.1764C71.2598 35.4371 71.1536 36.7246 71.1536 37.9987C71.1536 39.2863 71.2598 40.5738 71.4793 41.8211L66.8065 45.6099C66.4567 45.8935 66.2064 46.2713 66.0887 46.6929C65.9711 47.1146 65.9918 47.5601 66.1481 47.9704L66.2118 48.1447C67.4933 51.5178 69.3836 54.636 71.8475 57.3787L71.9749 57.5195C72.2726 57.8511 72.6695 58.0895 73.1131 58.2032C73.5567 58.3169 74.0263 58.3007 74.46 58.1566L80.2514 56.2052C82.3613 57.8481 84.7118 59.1491 87.2535 60.0476L88.3722 65.7678C88.4561 66.1966 88.6757 66.5912 89.002 66.8991C89.3283 67.2069 89.7457 67.4134 90.1988 67.4912L90.39 67.5247C94.1078 68.1584 97.9152 68.1584 101.633 67.5247L101.824 67.4912C102.277 67.4134 102.695 67.2069 103.021 66.8991C103.347 66.5912 103.567 66.1966 103.651 65.7678L104.762 60.0745C107.325 59.1625 109.69 57.8682 111.814 56.2186L117.563 58.1566C117.997 58.3018 118.467 58.3187 118.91 58.2049C119.354 58.0911 119.751 57.852 120.048 57.5195L120.176 57.3787C122.639 54.6226 124.53 51.5178 125.811 48.1447L125.875 47.9704C126.179 47.1388 125.917 46.2067 125.202 45.6233ZM96.0115 49.1238C89.1368 49.1238 83.5649 43.8463 83.5649 37.3348C83.5649 30.8234 89.1368 25.5459 96.0115 25.5459C102.886 25.5459 108.458 30.8234 108.458 37.3348C108.458 43.8463 102.886 49.1238 96.0115 49.1238Z" fill="#3B4F7D" fill-opacity="0.75"/>
</g>
<defs>
<clipPath id="clip0_7_14">
<rect width="125" height="125" fill="white"/>
</clipPath>
</defs>
</svg>
