<svg width="890" height="1010" viewBox="0 0 890 1010" fill="none" xmlns="http://www.w3.org/2000/svg">
<path d="M214.02 324.386C238.218 321.03 277.033 332.208 309.471 310.963C341.91 289.717 353.469 230.955 375.094 215.511C397.712 199.344 464.274 169.71 538.451 220.224C612.627 270.739 627.146 287.1 678.898 268.33C720.658 253.17 793.06 294.05 809.1 334.826C826.997 380.314 771.158 449.897 777.034 493.663C783.746 543.626 830.219 641.62 831.278 706.117C832.217 763.611 804.357 832.761 756.229 876.05C708.101 919.339 617.75 911.561 545.863 859.063C479.494 810.591 328.972 914.581 287.846 906.043C248.323 897.84 201.343 880.39 165.138 736.549C137.957 628.637 169.277 627.891 182.7 579.42C199.225 519.763 146.906 455.631 147.651 416.854C148.86 353.983 187.488 328.069 214.02 324.386Z" fill="url(#paint0_linear_12_1339)"/>
<path d="M611.214 442.957C649.31 442.957 680.193 412.074 680.193 373.979C680.193 335.883 649.31 305 611.214 305C573.119 305 542.236 335.883 542.236 373.979C542.236 412.074 573.119 442.957 611.214 442.957Z" fill="#AAAEDB"/>
<path d="M633.859 760.717C683.486 760.717 723.717 720.486 723.717 670.859C723.717 621.231 683.486 581 633.859 581C584.231 581 544 621.231 544 670.859C544 720.486 584.231 760.717 633.859 760.717Z" fill="#EFB7A8"/>
<path d="M342.757 608.505C390.119 608.505 428.514 570.111 428.514 522.748C428.514 475.386 390.119 436.991 342.757 436.991C295.395 436.991 257 475.386 257 522.748C257 570.111 295.395 608.505 342.757 608.505Z" fill="#2F2E40"/>
<path d="M713 762.927C713 760.106 630.699 758.037 529.197 758.037C427.696 758.037 345.373 761.046 345.373 762.927C345.373 764.807 427.657 767.816 529.197 767.816C630.738 767.816 713 766.5 713 762.927Z" fill="#263238" fill-opacity="0.48"/>
<path d="M416.06 666.41L404.373 576.558L589.323 574.705L582.669 667.86L508.203 711.071L471.492 701.997L416.06 666.41Z" fill="#EADFDD" stroke="#EFB7A8"/>
<path d="M497.764 359.896C497.764 359.896 451.903 363.163 445.191 385.534C438.48 407.906 422.074 431.724 431.396 444.05C440.717 456.377 456.377 489.188 465.326 494.408C474.274 499.628 522 509.323 533.566 489.188C545.132 469.054 567.489 448.92 561.523 424.311C555.557 399.703 542.88 378.823 530.203 369.874C517.526 360.926 497.764 359.896 497.764 359.896Z" fill="#EFB7A8"/>
<path d="M432.553 672.438C432.707 672.259 432.907 672.029 433.152 671.754C433.806 671.02 434.78 669.965 436.053 668.693C438.599 666.146 442.335 662.733 447.085 659.274C456.595 652.35 470.111 645.284 486.251 644.551C502.742 643.801 519.037 640.804 532.247 637.057C538.852 635.183 544.699 633.117 549.422 631.044C554.123 628.981 557.785 626.878 559.958 624.903C561.202 623.773 562.731 622.465 564.434 621.01C568.232 617.762 572.892 613.778 577.155 609.386C581.306 605.109 585.2 600.334 587.661 595.296L583.675 663.064L500.989 706.622L440.699 691.917L432.553 672.438Z" fill="#F8F1AE" stroke="#F0D3C5" stroke-width="2"/>
<path d="M464.58 487.697C464.58 487.697 502.343 499.777 519.017 488.443C522.515 491.425 526.228 493.305 530.345 493.334C551.829 493.663 569.949 502.82 584.64 516.78C589.621 521.515 627.265 606.012 619.316 626.027C612.701 642.686 585.013 654.364 585.013 654.364L590.233 573.827L403.804 576.064L413.499 655.855C413.499 655.855 388.144 649.89 377.704 633.484C367.264 617.078 393.029 541.545 395.601 532.813C401.612 512.402 428.122 492.827 451.157 492.171C463.275 491.828 464.065 487.331 464.58 487.697Z" fill="#FFD6D0"/>
<path d="M420.956 736.392C420.956 736.392 495.527 705.818 507.458 698.361C519.39 690.904 570.098 662.567 588.741 664.058C607.384 665.55 612.604 673.752 614.841 681.955C617.078 690.158 605.893 714.021 595.453 720.732C585.013 727.444 567.116 743.85 532.067 749.07C497.018 754.29 435.87 761.001 426.176 758.764C426.176 758.764 423.193 738.63 420.956 736.392Z" fill="#2F2E40"/>
<path d="M497.712 703.387C497.712 703.387 468.309 695.006 431.396 672.261C431.396 672.261 380.814 651.269 358.756 663.999C336.697 676.728 350.486 704.7 350.486 704.7C350.12 706.079 363.163 720.949 371.366 722.597C379.889 724.305 406.787 722.224 420.956 736.393C449.852 726.907 475.587 715.975 497.712 703.387Z" fill="#2F2E40"/>
<path d="M425.717 758.571C425.486 758.618 425.147 758.687 424.711 758.773C423.835 758.946 422.57 759.19 421.017 759.476C417.91 760.048 413.652 760.785 409.047 761.446C404.44 762.107 399.491 762.69 395.001 762.956C390.499 763.223 386.502 763.167 383.777 762.571C378.22 761.356 370.459 758.728 364.66 754.705C361.761 752.694 359.384 750.357 358.002 747.705C356.628 745.068 356.225 742.099 357.3 738.769C359.52 731.893 362.242 727.73 365.242 725.228C368.233 722.734 371.551 721.85 375.058 721.634C378.563 721.419 388.126 722.452 397.774 724.484C402.589 725.499 407.402 726.757 411.47 728.223C415.556 729.695 418.821 731.354 420.602 733.137C422.386 734.923 423.613 737.408 424.438 740.17C425.263 742.929 425.678 745.931 425.863 748.718C426.048 751.503 426.002 754.058 425.909 755.918C425.863 756.848 425.805 757.603 425.759 758.124C425.744 758.301 425.729 758.451 425.717 758.571Z" fill="white" stroke="#EADFDD"/>
<path d="M594.682 725.324C594.689 725.294 594.696 725.262 594.702 725.229C594.704 725.23 594.706 725.231 594.708 725.231C594.701 725.263 594.692 725.294 594.682 725.324ZM531.364 750.678C531.348 750.67 531.332 750.661 531.317 750.653L532.157 750.326C533.935 749.635 536.474 748.648 539.521 747.463C545.615 745.093 553.737 741.93 561.849 738.76C569.961 735.591 578.065 732.415 584.123 730.017C587.151 728.819 589.671 727.814 591.425 727.102C592.3 726.746 592.991 726.461 593.459 726.261C593.655 726.177 593.82 726.105 593.945 726.047C594.044 726.073 594.168 726.108 594.315 726.155C594.856 726.328 595.647 726.647 596.525 727.17C598.278 728.214 600.35 730.05 601.514 733.148C602.622 736.097 601.74 739.753 599.817 743.639C597.913 747.486 595.117 751.307 592.771 754.478C590.696 757.282 586.351 759.023 580.064 759.69C573.835 760.351 565.957 759.929 557.163 758.675C548.425 757.429 541.5 755.158 536.768 753.204C534.402 752.226 532.585 751.328 531.364 750.678ZM593.71 725.997C593.71 725.997 593.711 725.997 593.713 725.998L593.71 725.997Z" fill="white" stroke="#EADFDD" stroke-width="2"/>
<path d="M480.613 335.199C480.613 335.199 454.513 322.521 439.972 331.097C427.294 338.554 423.193 341.164 421.702 362.79C420.21 384.416 423.939 397.839 406.042 414.244C388.144 430.65 380.687 429.904 383.67 464.207C386.653 498.51 392.619 502.239 385.162 514.916C377.704 527.593 368.756 527.593 368.756 527.593C368.756 527.593 391.053 537.839 398.174 526.377C405.296 514.916 449.233 502.291 464.207 491.053C469.077 487.399 475.393 476.884 475.393 469.427C475.393 469.427 460.479 456.75 456.75 446.31C456.75 446.31 447.802 445.564 444.073 439.599C440.344 433.633 434.714 420.165 444.819 416.481C447.585 415.475 451.53 415.736 454.513 423.193C454.513 423.193 455.542 416.645 456.377 414.617C457.354 412.253 458.987 410.516 461.97 406.041C464.953 401.567 465.326 373.603 494.409 370.62C494.409 370.62 510.069 366.891 508.204 391.873C508.204 391.873 508.204 401.567 525.356 404.55C542.507 407.533 538.033 417.973 538.033 417.973C538.033 417.973 539.524 414.99 543.999 415.736C548.473 416.481 548.07 423.424 547.727 426.176C547.295 429.628 546.049 435.915 543.999 439.599C542.134 442.954 541.016 446.31 534.304 443.327C534.304 443.327 527.593 463.461 513.424 471.664C513.673 477.672 515.612 483.487 519.017 488.443C524.61 496.273 543.626 502.089 552.202 505.967C561.15 510.039 579.152 522.075 589.114 524.983C598.428 527.697 623.044 527.593 626.773 515.661C626.773 515.661 601.188 518.943 601.419 485.087C601.478 476.534 605.147 459.733 589.487 453.021C573.827 446.31 589.293 415.736 592.47 403.804C595.304 393.17 595.453 376.213 573.082 364.281C550.71 352.35 552.947 359.807 539.524 338.927C526.102 318.047 506.713 311.336 480.613 335.199Z" fill="#572F2F"/>
<path d="M388.144 488.815C386.936 474.259 373.23 450.784 375.228 435.288C377.227 419.792 381.433 416.481 399.33 399.33C417.227 382.178 412.753 363.998 412.753 351.604C412.753 340.754 415.736 325.504 442.581 318.793C470.583 311.79 480.613 335.198 480.613 335.198C480.613 335.198 494.781 295.676 518.644 302.387C542.507 309.098 549.219 332.961 552.947 338.927C556.862 345.183 567.861 351.604 580.539 356.824C593.216 362.044 603.656 376.608 602.91 401.023C602.164 425.437 591.724 424.684 591.724 438.853C591.724 452.462 594.275 458.696 599.181 464.207" stroke="#572F2F" stroke-width="3" stroke-miterlimit="10"/>
<path d="M635.931 673C632.203 674.491 632.949 679.711 632.949 679.711C626.983 679.711 624 690.151 624 690.151L679.183 690.897C679.712 690.092 677.468 680.01 673.217 680.457C673.65 680.398 674.209 673.604 670.98 673H635.931Z" fill="#20263C"/>
<path d="M625.491 699.846L679.645 700.591L675.454 731.166H630.779L625.491 699.846Z" fill="#20263C"/>
<path d="M628.616 690.211V700.099L675.835 700.591V690.897L628.616 690.211Z" fill="#EADFDD"/>
<path d="M634.179 731.166L636.677 760.994H669.362L672.151 731.166H634.179Z" fill="#EADFDD"/>
<path d="M432.514 527.965C433.164 531.642 433.609 535.351 433.849 539.076C434.125 542.805 434.244 546.534 434.252 550.262C434.252 552.134 434.2 553.991 434.148 555.862C434.095 557.734 434.006 559.591 433.834 561.448C433.581 565.174 433.141 568.885 432.514 572.567C432.514 568.838 432.641 565.109 432.671 561.381C432.701 557.652 432.768 553.924 432.761 550.24C432.753 546.556 432.76 542.82 432.693 539.106L432.514 527.965Z" fill="#2F2E40"/>
<path d="M557.295 527.965C557.131 531.56 557.041 535.139 556.959 538.719C556.877 542.298 556.855 545.87 556.862 549.449C556.862 551.232 556.862 553.021 556.862 554.811C556.862 556.601 556.907 558.391 556.914 560.18L556.989 565.557C556.989 567.347 557.049 569.144 556.989 570.948C556.392 567.399 555.982 563.819 555.721 560.232C555.46 556.646 555.341 553.044 555.311 549.449C555.281 545.855 555.445 542.246 555.744 538.659C556.021 535.064 556.539 531.491 557.295 527.965Z" fill="#2F2E40"/>
<path d="M426.549 731.545C431.967 729.413 437.416 727.355 442.895 725.371C448.353 723.365 453.842 721.426 459.3 719.472L475.781 713.715L483.984 710.822C485.348 710.322 486.735 709.868 488.077 709.331L490.113 708.548L492.171 707.683L490.262 708.756L488.286 709.696C486.974 710.337 485.632 710.897 484.304 711.501C481.62 712.642 478.92 713.738 476.206 714.804C473.491 715.871 470.762 716.885 468.003 717.921L459.8 720.904C454.304 722.828 448.793 724.707 443.245 726.49C437.697 728.272 432.156 729.965 426.549 731.545Z" fill="#EADFDD"/>
<path d="M470.919 416.481C471.934 415.484 473.102 414.655 474.379 414.028C475.673 413.337 477.093 412.913 478.555 412.782C480.057 412.699 481.552 413.037 482.872 413.759C484.155 414.414 485.278 415.343 486.161 416.481C484.963 415.834 483.716 415.281 482.433 414.826C481.238 414.399 479.971 414.209 478.704 414.266C477.397 414.39 476.111 414.671 474.871 415.102C473.529 415.512 472.254 415.996 470.919 416.481Z" fill="#572F2F"/>
<path d="M506.407 415.736C507.19 415.074 508.073 414.543 509.025 414.162C510.002 413.731 511.059 413.508 512.127 413.506C513.179 413.575 514.211 413.827 515.177 414.252C516.13 414.612 517.022 415.115 517.824 415.743C516.795 415.668 515.818 415.504 514.841 415.348C513.922 415.18 512.993 415.065 512.06 415.005C511.143 415.013 510.23 415.105 509.33 415.281C508.398 415.445 507.429 415.624 506.407 415.736Z" fill="#572F2F"/>
<path d="M504.476 407.533C505.577 406.641 506.88 406.034 508.272 405.765C509.634 405.463 511.032 405.353 512.425 405.437C513.812 405.502 515.184 405.753 516.504 406.183C517.849 406.6 519.087 407.302 520.136 408.241L516.146 407.906C514.849 407.794 513.574 407.712 512.298 407.637C511.023 407.563 509.741 407.495 508.458 407.473C507.175 407.451 505.87 407.458 504.476 407.533Z" fill="#572F2F"/>
<path d="M468.45 408.278C469.842 407.404 471.347 406.727 472.924 406.265C474.513 405.784 476.152 405.489 477.809 405.385C479.475 405.31 481.144 405.448 482.775 405.795C484.398 406.115 485.971 406.652 487.451 407.391C485.788 407.533 484.185 407.54 482.596 407.548C481.008 407.555 479.449 407.548 477.936 407.622C476.422 407.697 474.841 407.846 473.26 407.988C471.679 408.129 470.121 408.256 468.45 408.278Z" fill="#572F2F"/>
<path d="M494.782 423.193C494.886 426.199 494.608 429.206 493.954 432.141C493.624 433.691 493.029 435.172 492.194 436.519C491.784 437.19 491.299 437.809 490.881 438.391C490.505 438.826 490.22 439.333 490.046 439.882C489.964 440.18 490.091 440.508 490.449 440.896C490.882 441.309 491.388 441.637 491.94 441.866C493.169 442.391 494.497 442.645 495.833 442.611C498.547 442.544 501.269 441.247 503.738 439.628C502.8 440.831 501.668 441.87 500.389 442.701C499.063 443.58 497.558 444.153 495.982 444.379C494.355 444.616 492.695 444.447 491.15 443.886C490.318 443.587 489.557 443.12 488.913 442.514C488.54 442.147 488.246 441.708 488.048 441.224C487.822 440.685 487.765 440.089 487.884 439.517C487.993 439.028 488.191 438.563 488.465 438.144C488.681 437.799 488.915 437.466 489.166 437.145C489.636 436.541 490.061 435.982 490.464 435.415C491.264 434.27 491.892 433.014 492.328 431.687C493.238 428.957 493.961 426.071 494.782 423.193Z" fill="#572F2F"/>
<path d="M486.952 454.14C487.049 454.305 487.191 454.439 487.362 454.527C487.523 454.629 487.692 454.716 487.869 454.788C488.214 454.944 488.568 455.081 488.928 455.199C489.673 455.437 490.352 455.646 491.068 455.818C492.384 456.179 493.746 456.345 495.11 456.31C495.706 456.243 496.459 456.131 497.16 455.989L499.397 455.564C500.949 455.232 502.521 455.005 504.103 454.885C502.982 456.101 501.644 457.097 500.158 457.823C499.424 458.202 498.658 458.517 497.869 458.763C497.035 459.036 496.171 459.206 495.296 459.27C493.5 459.316 491.729 458.851 490.188 457.928C489.447 457.505 488.765 456.986 488.16 456.384C487.854 456.079 487.58 455.744 487.339 455.385C487.053 455.036 486.913 454.589 486.952 454.14Z" fill="#572F2F"/>
<path d="M450.411 440.717C452.677 440.717 454.513 438.881 454.513 436.616C454.513 434.35 452.677 432.514 450.411 432.514C448.146 432.514 446.31 434.35 446.31 436.616C446.31 438.881 448.146 440.717 450.411 440.717Z" fill="#EADFDD"/>
<path d="M539.151 441.09C541.417 441.09 543.253 439.254 543.253 436.989C543.253 434.723 541.417 432.887 539.151 432.887C536.886 432.887 535.05 434.723 535.05 436.989C535.05 439.254 536.886 441.09 539.151 441.09Z" fill="#EADFDD"/>
<path d="M470.919 445.937C474.625 445.937 477.63 442.932 477.63 439.226C477.63 435.519 474.625 432.514 470.919 432.514C467.212 432.514 464.207 435.519 464.207 439.226C464.207 442.932 467.212 445.937 470.919 445.937Z" fill="#CDB1AC"/>
<path d="M519.763 445.937C523.47 445.937 526.474 442.932 526.474 439.226C526.474 435.519 523.47 432.514 519.763 432.514C516.056 432.514 513.052 435.519 513.052 439.226C513.052 442.932 516.056 445.937 519.763 445.937Z" fill="#CDB1AC"/>
<path d="M478.376 425.803C480.435 425.803 482.104 424.134 482.104 422.074C482.104 420.015 480.435 418.346 478.376 418.346C476.317 418.346 474.647 420.015 474.647 422.074C474.647 424.134 476.317 425.803 478.376 425.803Z" fill="#572F2F"/>
<path d="M512.306 425.803C514.365 425.803 516.034 424.134 516.034 422.074C516.034 420.015 514.365 418.346 512.306 418.346C510.246 418.346 508.577 420.015 508.577 422.074C508.577 424.134 510.246 425.803 512.306 425.803Z" fill="#572F2F"/>
<path d="M477.63 468.987C480.225 470.478 482.805 471.97 485.438 473.245C486.765 473.886 488.085 474.535 489.442 475.042C490.754 475.586 492.13 475.96 493.536 476.153C494.957 476.273 496.388 476.216 497.794 475.982C499.233 475.803 500.673 475.497 502.112 475.184C504.983 474.535 507.839 473.737 510.717 472.947C508.058 474.323 505.277 475.451 502.41 476.317C500.966 476.767 499.494 477.123 498.003 477.384C496.48 477.674 494.926 477.761 493.38 477.645C491.836 477.42 490.33 476.983 488.905 476.347C487.518 475.747 486.173 475.055 484.878 474.274C482.299 472.747 479.872 470.977 477.63 468.987Z" fill="#572F2F"/>
<defs>
<linearGradient id="paint0_linear_12_1339" x1="489.472" y1="192.053" x2="489.472" y2="906.544" gradientUnits="userSpaceOnUse">
<stop stop-color="#ECEFF1"/>
<stop offset="0.85368" stop-color="#F5F5F5" stop-opacity="0.54"/>
<stop offset="0.895668" stop-color="white" stop-opacity="0.05"/>
</linearGradient>
</defs>
</svg>
