<svg width="247" height="247" viewBox="0 0 247 247" fill="none" xmlns="http://www.w3.org/2000/svg">
<path d="M17.055 100.8L122.255 14.609C129.732 8.48372 140.758 9.57886 146.883 17.055L231.806 120.708C237.932 128.185 236.837 139.211 229.36 145.336L124.16 231.527C116.684 237.652 105.658 236.557 99.5324 229.081L14.609 125.427C8.48372 117.951 9.57886 106.925 17.055 100.8Z" fill="#D2DEFE" stroke="#2F2E41" stroke-width="5"/>
<path d="M95.265 134.857C99.2555 129.21 104.887 124.928 111.394 122.592C104.9 120.266 99.2799 115.999 95.2956 110.368C91.3112 104.738 89.1562 98.0183 89.123 91.1209C89.123 91.0849 89.116 91.0559 89.116 91.0299L89.123 63.0029H71V182.175H89.123L89.116 154.148C89.116 154.123 89.123 154.094 89.123 154.057C89.1595 147.179 91.3031 140.479 95.265 134.857Z" fill="#3B4F7D" fill-opacity="0.75"/>
<path d="M122.777 120.457C130.565 120.399 138.018 117.281 143.527 111.775C149.036 106.269 152.159 98.8182 152.222 91.03V63.011L134.074 81.148V91.027C134.119 92.5386 133.86 94.0438 133.313 95.4534C132.765 96.8631 131.941 98.1486 130.887 99.2337C129.834 100.319 128.574 101.181 127.181 101.77C125.788 102.36 124.291 102.663 122.779 102.663C121.267 102.663 119.77 102.36 118.377 101.77C116.984 101.181 115.724 100.319 114.671 99.2337C113.617 98.1486 112.793 96.8631 112.245 95.4534C111.698 94.0438 111.439 92.5386 111.484 91.027V81.119L93.384 63V91.027C93.4285 98.8122 96.5384 106.266 102.04 111.775C107.542 117.283 114.992 120.403 122.777 120.457Z" fill="#2F2E41"/>
<path d="M122.777 124.721C114.992 124.775 107.542 127.894 102.04 133.402C96.5387 138.909 93.4283 146.363 93.383 154.148V182.175L111.483 164.056V154.148C111.438 152.636 111.697 151.131 112.244 149.721C112.792 148.312 113.616 147.026 114.67 145.941C115.723 144.856 116.983 143.993 118.376 143.404C119.769 142.815 121.266 142.512 122.778 142.512C124.29 142.512 125.787 142.815 127.18 143.404C128.573 143.993 129.833 144.856 130.886 145.941C131.94 147.026 132.764 148.312 133.312 149.721C133.859 151.131 134.118 152.636 134.073 154.148V164.027L152.221 182.165V154.148C152.158 146.36 149.035 138.909 143.526 133.403C138.017 127.897 130.564 124.779 122.776 124.721H122.777Z" fill="#2F2E41"/>
<path d="M174.598 63.011H156.486V91.027C156.464 97.9396 154.313 104.678 150.327 110.325C146.34 115.972 140.71 120.254 134.204 122.589C140.711 124.923 146.34 129.204 150.327 134.851C154.314 140.498 156.464 147.236 156.486 154.148V182.165H174.598V63.011Z" fill="#3B4F7D" fill-opacity="0.75"/>
</svg>
