<svg width="350" height="350" viewBox="0 0 350 350" fill="none" xmlns="http://www.w3.org/2000/svg">
<rect y="174.902" width="247.488" height="247.487" rx="10" transform="rotate(-44.9681 0 174.902)" fill="#20263C"/>
<rect x="2.82843" y="174.904" width="243.488" height="243.487" rx="8" transform="rotate(-44.9681 2.82843 174.904)" stroke="#3B4F7D" stroke-opacity="0.75" stroke-width="4"/>
<path d="M33.6935 170.107L168.778 35.1725C169.188 34.7627 169.345 34.6072 169.476 34.4883C172.531 31.711 177.224 31.6836 180.312 34.425C180.444 34.5424 180.603 34.696 181.018 35.101L317.672 168.45C318.087 168.855 318.244 169.009 318.365 169.138C321.177 172.154 321.204 176.788 318.427 179.837C318.308 179.967 318.153 180.124 317.742 180.533L182.658 315.468C182.247 315.878 182.091 316.033 181.96 316.152C178.905 318.929 174.211 318.957 171.124 316.215C170.991 316.098 170.833 315.944 170.418 315.539L33.7641 182.191C33.349 181.786 33.1916 181.631 33.0712 181.502C30.2586 178.486 30.2315 173.852 33.0087 170.803C33.1276 170.673 33.2832 170.517 33.6935 170.107Z" fill="#F2F7F5" stroke="#FCEDEE" stroke-width="4"/>
<path d="M127.8 198.55C127.2 198.55 126.65 198.3 126.15 197.8C120.85 192.2 118.2 189.15 118.2 188.65C118.2 188.05 118.5 187.75 119.1 187.75H119.4C122.1 186.05 124.35 184.55 126.15 183.25C127.05 179.85 128.25 175.95 129.75 171.55C131.35 167.15 133.15 162.65 135.15 158.05L143.7 138.4C145.6 134 147.05 130.25 148.05 127.15C149.15 123.95 149.7 121.35 149.7 119.35C149.7 117.15 148.75 116.05 146.85 116.05L141.6 117.1C141.1 117.1 140.85 116.8 140.85 116.2C140.85 114.7 142.75 113.95 146.55 113.95C150.35 113.95 153.2 114.65 155.1 116.05C157 117.35 157.95 119.15 157.95 121.45C157.95 123.55 155.7 129.2 151.2 138.4L142.35 156.55L133.5 176.95C137.6 173.35 141.65 169.15 145.65 164.35C149.75 159.45 152.8 155.55 154.8 152.65C156.9 149.65 158.1 148.15 158.4 148.15H159.15C162.75 148.15 164.55 148.8 164.55 150.1C164.55 150 164.5 150 164.4 150.1C164.4 150.1 164.45 150.15 164.55 150.25V150.1C164.45 149.9 164.2 150.2 163.8 151C162.4 153.5 161.05 156.3 159.75 159.4C158.55 162.5 157.4 165.85 156.3 169.45C154.1 176.45 153 181.15 153 183.55C153 189.65 154.05 192.7 156.15 192.7C156.85 192.7 158.3 191.75 160.5 189.85C160.8 189.85 160.95 190.25 160.95 191.05C160.95 193.65 159.5 194.95 156.6 194.95C153.8 194.95 151.5 193.5 149.7 190.6C147.9 187.7 147 184.35 147 180.55C147 176.45 147.95 171.85 149.85 166.75C146.65 170.05 143.45 173.1 140.25 175.9C137.15 178.6 134.15 181.1 131.25 183.4C129.25 189.1 128.25 192.95 128.25 194.95V195.7C129.15 196.3 129.6 196.8 129.6 197.2C129.6 198.1 129 198.55 127.8 198.55ZM124.95 193.9C124.95 193.7 124.9 193.4 124.8 193C124.8 192.7 124.8 192.35 124.8 191.95C124.8 190.95 124.95 189.5 125.25 187.6C124.15 188.2 123.25 188.65 122.55 188.95C121.85 189.25 121.4 189.45 121.2 189.55C121.7 190.25 122.25 191 122.85 191.8C123.45 192.5 124.15 193.2 124.95 193.9ZM207.861 199.9C207.561 199.9 207.411 199.7 207.411 199.3C208.611 195.8 209.211 193.9 209.211 193.6C209.211 190.1 203.961 188.35 193.461 188.35C182.761 188.35 172.911 190.35 163.911 194.35C163.511 194.35 163.311 193.7 163.311 192.4C163.311 191.9 163.411 191.25 163.611 190.45C163.911 189.65 164.311 189 164.811 188.5L164.961 188.35C166.361 188.15 167.411 187.55 168.111 186.55C168.111 184.95 174.961 179.55 188.661 170.35C202.461 160.95 209.411 155.95 209.511 155.35C208.111 153.65 206.261 152.8 203.961 152.8C202.861 152.8 201.111 153.05 198.711 153.55C196.311 153.95 193.261 154.55 189.561 155.35C185.861 156.15 182.961 156.75 180.861 157.15C178.761 157.55 177.411 157.75 176.811 157.75C175.611 157.75 175.011 156.75 175.011 154.75C175.011 152.55 175.611 150.95 176.811 149.95C177.311 150.45 177.711 150.7 178.011 150.7L201.411 148.45C204.311 148.45 206.761 149.55 208.761 151.75C210.761 153.85 211.761 156.75 211.761 160.45C211.761 160.95 208.861 163.25 203.061 167.35L177.861 185.2C182.061 184.1 189.261 183.55 199.461 183.55C207.061 183.55 210.861 187.05 210.861 194.05C210.861 197.95 209.861 199.9 207.861 199.9Z" fill="#20263C"/>
</svg>
